<svg width="323" height="121" viewBox="0 0 323 121" fill="none" xmlns="http://www.w3.org/2000/svg">
<path fill-rule="evenodd" clip-rule="evenodd" d="M90.6405 0.171612C93.3078 -0.543097 96.0495 1.03982 96.7642 3.70715L120.058 90.6405C120.773 93.3078 119.19 96.0495 116.522 96.7642L29.5891 120.058C26.9217 120.773 24.18 119.19 23.4653 116.522L0.171612 29.5891C-0.543097 26.9217 1.03982 24.18 3.70715 23.4653L90.6405 0.171612ZM52.6837 24.0959C50.5417 22.5663 47.5801 22.9593 45.9111 24.9946L19.4835 57.2258C18.0787 58.9391 17.9685 61.3727 19.2134 63.2055L45.7257 102.237C47.405 104.709 50.8631 105.166 53.1264 103.214L98.2942 64.2713C100.749 62.1552 100.572 58.2984 97.9351 56.4149L52.6837 24.0959Z" fill="#1D1D1D"/>
<path d="M177.284 21.6958V28.1091H160.207V59.8776H152.874V21.6958H177.284Z" fill="#1D1D1D"/>
<path d="M180.24 74.1958V21.6958H187.498V27.8854H188.12C188.55 27.0899 189.172 26.1702 189.984 25.1262C190.796 24.0821 191.923 23.1707 193.365 22.3918C194.806 21.5963 196.712 21.1986 199.082 21.1986C202.164 21.1986 204.915 21.9775 207.335 23.5353C209.754 25.093 211.652 27.3385 213.027 30.2718C214.419 33.205 215.115 36.7348 215.115 40.8612C215.115 44.9877 214.428 48.5258 213.052 51.4756C211.677 54.4088 209.787 56.6709 207.384 58.2618C204.982 59.8362 202.239 60.6233 199.156 60.6233C196.836 60.6233 194.939 60.2339 193.464 59.455C192.006 58.6761 190.862 57.7647 190.034 56.7206C189.205 55.6766 188.567 54.7486 188.12 53.9365H187.672V74.1958H180.24ZM187.523 40.7867C187.523 43.4713 187.912 45.8246 188.691 47.8463C189.47 49.8681 190.597 51.4507 192.072 52.5942C193.547 53.7211 195.353 54.2845 197.491 54.2845C199.712 54.2845 201.568 53.6962 203.059 52.5196C204.551 51.3264 205.678 49.7107 206.44 47.6723C207.219 45.634 207.608 43.3388 207.608 40.7867C207.608 38.2677 207.227 36.0057 206.465 34.0005C205.719 31.9952 204.592 30.4126 203.084 29.2526C201.593 28.0925 199.728 27.5125 197.491 27.5125C195.337 27.5125 193.514 28.0677 192.022 29.178C190.547 30.2883 189.429 31.8378 188.666 33.8264C187.904 35.8151 187.523 38.1352 187.523 40.7867Z" fill="#1D1D1D"/>
<path d="M229.654 60.7228C227.235 60.7228 225.047 60.2753 223.092 59.3804C221.136 58.469 219.587 57.1515 218.443 55.428C217.316 53.7045 216.753 51.5916 216.753 49.0892C216.753 46.9349 217.167 45.1617 217.996 43.7696C218.824 42.3776 219.943 41.2756 221.352 40.4635C222.76 39.6515 224.335 39.0383 226.075 38.624C227.815 38.2097 229.588 37.8949 231.394 37.6794C233.681 37.4143 235.537 37.1988 236.962 37.0331C238.388 36.8508 239.423 36.5608 240.07 36.1631C240.716 35.7654 241.039 35.1191 241.039 34.2242V34.0502C241.039 31.8792 240.426 30.1972 239.2 29.004C237.99 27.8108 236.184 27.2142 233.781 27.2142C231.278 27.2142 229.306 27.7694 227.864 28.8797C226.439 29.9735 225.453 31.1915 224.906 32.5338L217.921 30.9429C218.75 28.6228 219.96 26.7502 221.551 25.325C223.158 23.8833 225.006 22.8392 227.094 22.1929C229.182 21.53 231.378 21.1986 233.681 21.1986C235.206 21.1986 236.822 21.3809 238.529 21.7455C240.252 22.0935 241.859 22.7398 243.351 23.6844C244.859 24.629 246.094 25.9796 247.055 27.7362C248.016 29.4763 248.497 31.7384 248.497 34.5225V59.8776H241.238V54.6574H240.94C240.459 55.6186 239.738 56.5632 238.777 57.4912C237.816 58.4193 236.581 59.1898 235.073 59.803C233.565 60.4162 231.759 60.7228 229.654 60.7228ZM231.27 54.7568C233.325 54.7568 235.082 54.3508 236.54 53.5388C238.015 52.7268 239.133 51.6662 239.896 50.357C240.675 49.0312 241.064 47.6143 241.064 46.1063V41.1844C240.799 41.4496 240.285 41.6981 239.523 41.9301C238.777 42.1456 237.924 42.3362 236.962 42.5019C236.001 42.651 235.065 42.7919 234.154 42.9245C233.242 43.0405 232.48 43.1399 231.867 43.2228C230.425 43.405 229.107 43.7116 227.914 44.1425C226.738 44.5734 225.793 45.1948 225.08 46.0068C224.384 46.8023 224.036 47.8629 224.036 49.1887C224.036 51.0282 224.716 52.4202 226.075 53.3648C227.434 54.2928 229.165 54.7568 231.27 54.7568Z" fill="#1D1D1D"/>
<path d="M279.373 37.58V44.0182H258.692V37.58H279.373ZM260.78 21.6958V59.8776H253.496V21.6958H260.78ZM284.569 21.6958V59.8776H277.31V21.6958H284.569Z" fill="#1D1D1D"/>
<path d="M296.895 49.4621L313.724 21.6958H321.728V59.8776H314.445V32.0864L297.691 59.8776H289.612V21.6958H296.895V49.4621Z" fill="#1D1D1D"/>
<path d="M152.404 103.448V96.2054H153.694C154.024 95.9028 154.302 95.5417 154.529 95.1221C154.763 94.7025 154.959 94.2038 155.117 93.626C155.282 93.0483 155.42 92.3742 155.53 91.6038C155.64 90.8266 155.736 89.9393 155.819 88.9419L156.314 83.03H167.086V96.2054H169.521V103.448H166.508V98.8776H155.458V103.448H152.404ZM156.995 96.2054H164.073V85.6713H159.079L158.749 88.9419C158.591 90.6065 158.391 92.0509 158.151 93.2752C157.91 94.4927 157.525 95.4694 156.995 96.2054Z" fill="#1D1D1D"/>
<path d="M177.332 99.1975C175.771 99.1975 174.426 98.8639 173.298 98.1967C172.177 97.5226 171.31 96.5768 170.698 95.3594C170.093 94.135 169.79 92.7009 169.79 91.057C169.79 89.4337 170.093 88.003 170.698 86.7649C171.31 85.5268 172.163 84.5604 173.257 83.8657C174.357 83.171 175.644 82.8236 177.116 82.8236C178.01 82.8236 178.876 82.9715 179.716 83.2673C180.555 83.563 181.308 84.0273 181.975 84.6601C182.642 85.2929 183.169 86.1149 183.554 87.126C183.939 88.1303 184.132 89.3512 184.132 90.7887V91.8824H171.534V89.5713H181.108C181.108 88.7596 180.943 88.0408 180.613 87.4149C180.283 86.7821 179.819 86.2834 179.22 85.9189C178.629 85.5543 177.934 85.372 177.136 85.372C176.27 85.372 175.513 85.5853 174.866 86.0117C174.227 86.4313 173.731 86.9816 173.381 87.6625C173.037 88.3366 172.865 89.0692 172.865 89.8602V91.6657C172.865 92.725 173.051 93.626 173.422 94.3689C173.8 95.1118 174.326 95.6792 175.001 96.0713C175.675 96.4565 176.462 96.6491 177.363 96.6491C177.948 96.6491 178.481 96.5665 178.962 96.4015C179.444 96.2295 179.86 95.975 180.211 95.638C180.562 95.3009 180.83 94.8848 181.016 94.3895L183.935 94.9157C183.702 95.7755 183.282 96.5287 182.677 97.1753C182.078 97.8149 181.325 98.3136 180.417 98.6713C179.516 99.0221 178.488 99.1975 177.332 99.1975Z" fill="#1D1D1D"/>
<path d="M185.521 98.8776V83.03H192.093C193.881 83.03 195.298 83.4117 196.344 84.1752C197.389 84.9318 197.912 85.9601 197.912 87.2601C197.912 88.1887 197.616 88.9247 197.025 89.4681C196.433 90.0115 195.649 90.376 194.672 90.5617C195.381 90.6443 196.031 90.8575 196.622 91.2014C197.214 91.5385 197.688 91.9924 198.046 92.5633C198.411 93.1342 198.593 93.8152 198.593 94.6062C198.593 95.4454 198.376 96.1882 197.943 96.8348C197.509 97.4745 196.88 97.9766 196.055 98.3411C195.236 98.6988 194.249 98.8776 193.094 98.8776H185.521ZM188.42 96.2983H193.094C193.857 96.2983 194.456 96.116 194.889 95.7514C195.322 95.3869 195.539 94.8917 195.539 94.2657C195.539 93.5297 195.322 92.952 194.889 92.5324C194.456 92.1059 193.857 91.8927 193.094 91.8927H188.42V96.2983ZM188.42 89.6332H192.124C192.702 89.6332 193.197 89.5506 193.609 89.3856C194.029 89.2205 194.349 88.9866 194.569 88.684C194.796 88.3744 194.909 88.0099 194.909 87.5903C194.909 86.9781 194.658 86.5001 194.156 86.1562C193.654 85.8123 192.966 85.6403 192.093 85.6403H188.42V89.6332Z" fill="#1D1D1D"/>
<path d="M206.773 99.1975C205.212 99.1975 203.867 98.8639 202.739 98.1967C201.618 97.5226 200.751 96.5768 200.139 95.3594C199.534 94.135 199.231 92.7009 199.231 91.057C199.231 89.4337 199.534 88.003 200.139 86.7649C200.751 85.5268 201.604 84.5604 202.698 83.8657C203.798 83.171 205.085 82.8236 206.557 82.8236C207.451 82.8236 208.318 82.9715 209.157 83.2673C209.996 83.563 210.749 84.0273 211.416 84.6601C212.083 85.2929 212.61 86.1149 212.995 87.126C213.38 88.1303 213.573 89.3512 213.573 90.7887V91.8824H200.975V89.5713H210.55C210.55 88.7596 210.384 88.0408 210.054 87.4149C209.724 86.7821 209.26 86.2834 208.661 85.9189C208.07 85.5543 207.375 85.372 206.577 85.372C205.711 85.372 204.954 85.5853 204.307 86.0117C203.668 86.4313 203.173 86.9816 202.822 87.6625C202.478 88.3366 202.306 89.0692 202.306 89.8602V91.6657C202.306 92.725 202.492 93.626 202.863 94.3689C203.241 95.1118 203.768 95.6792 204.442 96.0713C205.116 96.4565 205.903 96.6491 206.804 96.6491C207.389 96.6491 207.922 96.5665 208.404 96.4015C208.885 96.2295 209.301 95.975 209.652 95.638C210.003 95.3009 210.271 94.8848 210.457 94.3895L213.377 94.9157C213.143 95.7755 212.723 96.5287 212.118 97.1753C211.519 97.8149 210.766 98.3136 209.858 98.6713C208.957 99.0221 207.929 99.1975 206.773 99.1975Z" fill="#1D1D1D"/>
<path d="M213.713 98.8776L213.703 96.2054H214.27C214.711 96.2054 215.079 96.1126 215.374 95.9268C215.677 95.7342 215.925 95.411 216.117 94.957C216.31 94.503 216.458 93.8771 216.561 93.0792C216.664 92.2745 216.74 91.2633 216.788 90.0459L217.066 83.03H228.127V98.8776H225.104V85.6919H219.924L219.677 91.0776C219.615 92.3845 219.481 93.5263 219.274 94.503C219.075 95.4798 218.783 96.2948 218.397 96.9483C218.012 97.5948 217.517 98.0798 216.912 98.403C216.306 98.7194 215.57 98.8776 214.704 98.8776H213.713Z" fill="#1D1D1D"/>
<path d="M236.882 99.1975C235.397 99.1975 234.1 98.857 232.993 98.1761C231.885 97.4951 231.026 96.5424 230.413 95.3181C229.801 94.0938 229.495 92.6631 229.495 91.026C229.495 89.3821 229.801 87.9445 230.413 86.7133C231.026 85.4821 231.885 84.526 232.993 83.8451C234.1 83.1641 235.397 82.8236 236.882 82.8236C238.368 82.8236 239.665 83.1641 240.772 83.8451C241.88 84.526 242.739 85.4821 243.352 86.7133C243.964 87.9445 244.27 89.3821 244.27 91.026C244.27 92.6631 243.964 94.0938 243.352 95.3181C242.739 96.5424 241.88 97.4951 240.772 98.1761C239.665 98.857 238.368 99.1975 236.882 99.1975ZM236.893 96.6078C237.856 96.6078 238.654 96.3533 239.286 95.8443C239.919 95.3353 240.387 94.6578 240.69 93.8118C240.999 92.9657 241.154 92.0337 241.154 91.0157C241.154 90.0046 240.999 89.076 240.69 88.23C240.387 87.3771 239.919 86.6927 239.286 86.1768C238.654 85.6609 237.856 85.403 236.893 85.403C235.923 85.403 235.118 85.6609 234.478 86.1768C233.846 86.6927 233.375 87.3771 233.065 88.23C232.762 89.076 232.611 90.0046 232.611 91.0157C232.611 92.0337 232.762 92.9657 233.065 93.8118C233.375 94.6578 233.846 95.3353 234.478 95.8443C235.118 96.3533 235.923 96.6078 236.893 96.6078Z" fill="#1D1D1D"/>
<path d="M245.679 98.8776V83.03H258.607V98.8776H255.584V85.6919H248.682V98.8776H245.679Z" fill="#1D1D1D"/>
<path d="M269.592 95.0602L274.709 83.03H277.371L270.737 98.8776H268.446L261.946 83.03H264.577L269.592 95.0602ZM263.721 83.03V98.8776H260.698V83.03H263.721ZM275.545 98.8776V83.03H278.547V98.8776H275.545Z" fill="#1D1D1D"/>
<path d="M287.455 99.1975C285.894 99.1975 284.549 98.8639 283.421 98.1967C282.3 97.5226 281.433 96.5768 280.821 95.3594C280.216 94.135 279.913 92.7009 279.913 91.057C279.913 89.4337 280.216 88.003 280.821 86.7649C281.433 85.5268 282.286 84.5604 283.38 83.8657C284.48 83.171 285.766 82.8236 287.238 82.8236C288.133 82.8236 288.999 82.9715 289.838 83.2673C290.678 83.563 291.431 84.0273 292.098 84.6601C292.765 85.2929 293.291 86.1149 293.677 87.126C294.062 88.1303 294.254 89.3512 294.254 90.7887V91.8824H281.657V89.5713H291.231C291.231 88.7596 291.066 88.0408 290.736 87.4149C290.406 86.7821 289.942 86.2834 289.343 85.9189C288.752 85.5543 288.057 85.372 287.259 85.372C286.392 85.372 285.636 85.5853 284.989 86.0117C284.35 86.4313 283.854 86.9816 283.503 87.6625C283.16 88.3366 282.988 89.0692 282.988 89.8602V91.6657C282.988 92.725 283.173 93.626 283.545 94.3689C283.923 95.1118 284.449 95.6792 285.123 96.0713C285.797 96.4565 286.585 96.6491 287.486 96.6491C288.071 96.6491 288.604 96.5665 289.085 96.4015C289.567 96.2295 289.983 95.975 290.334 95.638C290.684 95.3009 290.953 94.8848 291.138 94.3895L294.058 94.9157C293.824 95.7755 293.405 96.5287 292.8 97.1753C292.201 97.8149 291.448 98.3136 290.54 98.6713C289.639 99.0221 288.611 99.1975 287.455 99.1975Z" fill="#1D1D1D"/>
<path d="M306.384 89.6229V92.2951H297.8V89.6229H306.384ZM298.666 83.03V98.8776H295.643V83.03H298.666ZM308.54 83.03V98.8776H305.527V83.03H308.54Z" fill="#1D1D1D"/>
<path d="M308.668 85.6919V83.03H322.039V85.6919H316.87V98.8776H313.858V85.6919H308.668Z" fill="#1D1D1D"/>
</svg>

